<svg width="22" height="30" viewBox="0 0 22 30" fill="none" xmlns="http://www.w3.org/2000/svg">
<path d="M21.8557 26.5263C21.9519 26.7208 22 26.9182 22 27.1187C22 27.3957 21.9141 27.6544 21.7423 27.8946C21.5705 28.1348 21.3299 28.3182 21.0207 28.445L19.567 29.0286C19 29.2496 18.4321 29.4102 17.8634 29.5104C17.2947 29.6107 16.72 29.6607 16.1392 29.6607C15.2045 29.6607 14.2809 29.5274 13.3686 29.2606C12.4562 28.9939 11.5833 28.6123 10.75 28.1156C9.91666 27.619 9.1349 27.0184 8.40463 26.3141C7.67437 25.6096 7.02063 24.8241 6.44326 23.9576C6.07557 23.4772 5.68897 22.929 5.28347 22.313C4.93989 21.7884 4.54725 21.1599 4.10571 20.4274C3.66409 19.695 3.21819 18.8823 2.76808 17.9892C2.30756 17.0961 1.94247 16.3158 1.67264 15.6483C1.4029 14.9807 1.19415 14.4259 1.04638 13.9838C0.874587 13.468 0.756053 13.0259 0.690697 12.6574C0.453632 11.9736 0.279236 11.2936 0.167508 10.6171C0.055864 9.94074 0 9.27088 0 8.60773C0 7.74125 0.101395 6.90712 0.304101 6.10541C0.506892 5.30378 0.817882 4.55806 1.23707 3.86839C1.65635 3.17872 2.1881 2.56197 2.83251 2.01821C3.47684 1.47437 4.23886 1.03155 5.11857 0.689667L6.55155 0.123782C6.77836 0.041212 7.00518 0 7.23199 0C7.55155 0 7.84877 0.0758692 8.12372 0.22768C8.39859 0.379418 8.60482 0.589445 8.74226 0.857689L11.5 6.2292C11.5962 6.42373 11.6443 6.61827 11.6443 6.81281C11.6443 7.0987 11.5584 7.3632 11.3866 7.60637C11.2148 7.84954 10.9725 8.03154 10.6598 8.15266L7.82474 9.27088C7.45016 9.4183 7.16319 9.63488 6.96393 9.92078C6.76458 10.2067 6.66495 10.5147 6.66495 10.8448C6.66495 11.0953 6.71989 11.3311 6.82986 11.5521L11.4845 20.6683C11.6667 21.0191 11.9184 21.277 12.2397 21.442C12.561 21.6071 12.9106 21.6897 13.2887 21.6897C13.5464 21.6897 13.8092 21.6395 14.0773 21.5393L16.9123 20.4208C17.1357 20.3383 17.3609 20.297 17.5877 20.297C17.9003 20.297 18.1959 20.3729 18.4743 20.5247C18.7526 20.6765 18.9622 20.885 19.1031 21.1503L21.8557 26.5263Z" fill="black"/>
</svg>
